<svg xmlns="http://www.w3.org/2000/svg" fill="none" viewBox="0 0 348 348"><path stroke="#000" stroke-width="2" d="M5 5.8h337v337.6H5Z"/><path stroke="#000" stroke-width="2" d="M282.7 40.6c0-8.4 7-15.2 15.6-15.2 4.1 0 8 1.6 11 4.4a15 15 0 0 1 4.6 10.8c0 8.3-7 15.1-15.6 15.1s-15.6-6.8-15.6-15.1z"/><rect width="93.4" height="93.4" x="126.8" y="21" stroke="#000" stroke-width="2.3" ry="6"/><rect width="93.4" height="93.4" x="126.8" y="-328.3" stroke="#000" stroke-width="2.3" ry="6" transform="scale(1 -1)"/><rect width="93.4" height="93.4" x="126.8" y="-221.3" stroke="#000" stroke-width="2.3" ry="6" transform="scale(1 -1)"/><rect width="93.4" height="93.4" x="20.8" y="-221.3" stroke="#000" stroke-width="2.3" ry="6" transform="scale(1 -1)"/><rect width="93.4" height="93.4" x="234.8" y="-221.3" stroke="#000" stroke-width="2.3" ry="6" transform="scale(1 -1)"/><rect width="93.4" height="93.4" x="20.8" y="-329.3" stroke="#000" stroke-width="2.3" ry="6" transform="scale(1 -1)"/><rect width="93.4" height="93.4" x="234.8" y="-329.3" stroke="#000" stroke-width="2.3" ry="6" transform="scale(1 -1)"/><rect width="84.1" height="84.1" x="25.5" y="26.5" stroke="#000" stroke-width="2" ry="0"/><rect width="22" height="9.6" x="54.8" y="29.5" stroke="#000" stroke-width="2.5" ry="4.8"/><rect width="22" height="9.6" x="54.8" y="-107.6" fill="#000" stroke="#000" stroke-width="2.5" ry="4.8" transform="scale(1 -1)"/><rect width="22" height="9.6" x="54.8" y="63.5" stroke="#000" stroke-width="2.5" ry="4.8"/><rect width="22" height="9.6" x="39.8" y="-55.2" stroke="#000" stroke-width="2.5" ry="4.8" transform="rotate(90)"/><rect width="22" height="9.6" x="39.8" y="-86.6" fill="#000" stroke="#000" stroke-width="2.5" ry="4.8" transform="rotate(90)"/><rect width="22" height="9.6" x="74.1" y="-55.2" stroke="#000" stroke-width="2.5" ry="4.8" transform="rotate(90)"/><rect width="22" height="9.6" x="74.1" y="-86.6" fill="#000" stroke="#000" stroke-width="2.5" ry="4.8" transform="rotate(90)"/><g fill="#000" stroke-width="1.9" aria-label="UP" font-family="Impact" font-size="28.6" font-weight="700" style="line-height:1.25;-inkscape-font-specification:&quot;Bahnschrift Bold&quot;;text-align:center" text-anchor="middle"><path d="M172 55.7v18.7q-.3 1-1 2.2-.9 1-2.3 1.6-1.3.6-3.1.6-2 0-3.6-.7-1.5-.7-2.3-1.7-.8-1.1-1-2.3V55.7h5.8v17q0 1.4.2 1.9.1.4.6.4.6 0 .7-.5.2-.4.2-2.1V55.7ZM174.4 55.7h5.9q2.4 0 3.6.4 1.3.4 2 1 .6.8.9 1.8.2 1 .2 3.1v2q0 2.2-.4 3.2-.5 1-1.7 1.5t-3.1.5h-1.6v9.1h-5.8zm5.8 3.9v5.7h.5q.8 0 1-.3.4-.4.4-1.7v-1.9q0-1.1-.4-1.5-.3-.3-1.5-.3z" style="-inkscape-font-specification:&quot;Impact Bold&quot;"/></g><g fill="#000" stroke-width="1.9" aria-label="STUCK" font-family="Impact" font-size="28.6" font-weight="700" style="line-height:1.25;-inkscape-font-specification:&quot;Bahnschrift Bold&quot;;text-align:center" text-anchor="middle"><path d="M148.8 170.6h-5.4v-1.7q0-1.2-.3-1.5-.2-.3-.7-.3-.5 0-.8.4-.2.4-.2 1.3 0 1.1.3 1.7.3.6 1.6 1.4 4 2.3 5 3.8t1 4.8q0 2.4-.6 3.6-.5 1.1-2.2 2-1.6.7-3.7.7-2.4 0-4-1-1.7-.8-2.2-2.2-.5-1.4-.5-4v-1.4h5.4v2.8q0 1.2.2 1.6.3.4.9.4.5 0 .8-.5.3-.5.3-1.4 0-2-.5-2.6-.6-.6-2.8-2l-2.9-2.1q-.7-.7-1.2-1.8-.4-1.2-.4-3 0-2.6.6-3.8.7-1.2 2.2-1.9 1.5-.6 3.6-.6 2.2 0 3.8.7 1.7.7 2.2 1.9.5 1 .5 3.8zM163 163.7v4.5h-3.5v18.1h-5.9v-18h-3.5v-4.6zM177.6 163.7v15.1l-.1 3.6q-.2 1-1 2.2-.8 1-2.2 1.6-1.3.6-3.2.6-2 0-3.5-.7-1.6-.7-2.3-1.7-.8-1.1-1-2.3v-18.4h5.8v17l.1 1.9q.2.4.7.4.6 0 .7-.5.2-.4.2-2.1v-16.7zM193.6 173.6h-5.8v-4q0-1.7-.2-2-.2-.5-.9-.5t-.9.5q-.2.5-.2 2.2v10.5q0 1.7.2 2.2.2.5.9.5.6 0 .8-.5.3-.5.3-2.4v-2.8h5.8v.8q0 3.5-.5 5t-2.2 2.6q-1.7 1-4.1 1-2.6 0-4.3-.9-1.7-.9-2.2-2.5-.6-1.7-.6-5v-6.6q0-2.5.2-3.7.2-1.2 1-2.3.8-1.2 2.3-1.8 1.5-.6 3.4-.6 2.6 0 4.3 1 1.7 1 2.2 2.5.5 1.5.5 4.6zM209.7 163.7l-3.3 10.2 3.6 12.4h-6l-2.4-9.7v9.7h-5.9v-22.6h5.9v8.8l2.6-8.8z" style="-inkscape-font-specification:&quot;Impact Bold&quot;"/></g><g fill="#000" stroke-width="1.9" aria-label="LEFT" font-family="Impact" font-size="28.6" font-weight="700" style="line-height:1.25;-inkscape-font-specification:&quot;Bahnschrift Bold&quot;;text-align:center" text-anchor="middle"><path d="M50 163.7v18h3.6v4.6h-9.4v-22.6zM55 163.7h9.8v4.5H61v4.3h3.7v4.3h-3.7v5h4.3v4.5H55ZM67 163.7h9.9v4.5h-4.1v4.3h3.6v4.3h-3.6v9.5h-5.9zM90.1 163.7v4.5h-3.5v18.1h-5.9v-18h-3.4v-4.6z" style="-inkscape-font-specification:&quot;Impact Bold&quot;"/></g><g fill="#000" stroke-width="1.9" aria-label="RIGHT" font-family="Impact" font-size="28.6" font-weight="700" style="line-height:1.25;-inkscape-font-specification:&quot;Bahnschrift Bold&quot;;text-align:center" text-anchor="middle"><path d="M247.5 163.7h4.2q4.1 0 5.6.3 1.5.4 2.4 1.7 1 1.3 1 4.2 0 2.6-.7 3.5-.7 1-2.6 1.1 1.7.5 2.3 1.2.6.7.8 1.3l.1 3.3v6h-5.4v-7.5q0-1.8-.3-2.2-.3-.5-1.5-.5v10.2h-5.9zm5.9 3.9v5q1 0 1.4-.3.4-.2.4-1.7v-1.3q0-1-.4-1.4-.4-.3-1.4-.3zM268.8 163.7v22.6h-5.9v-22.6zM284.6 172h-5.9v-2l-.1-2.4q-.2-.5-.8-.5-.6 0-.8.4-.2.4-.2 2.1v10.9q0 1.5.2 2t.8.5q.7 0 .9-.6.2-.5.2-2.1v-2.7h-1.2v-3.4h6.9v12.1h-3.7l-.5-1.6q-.6 1-1.6 1.6-.9.5-2.1.5-1.5 0-2.8-.7-1.3-.8-2-1.8-.6-1-.8-2.2l-.1-3.5v-6.7q0-3.3.3-4.7.4-1.5 2-2.7 1.7-1.2 4.3-1.2 2.6 0 4.3 1 1.7 1 2.2 2.5.5 1.5.5 4.3zM300.4 163.7v22.6h-5.9v-9.5h-1.8v9.5H287v-22.6h5.8v8.1h1.8v-8zM314.6 163.7v4.5H311v18.1h-5.9v-18h-3.5v-4.6z" style="-inkscape-font-specification:&quot;Impact Bold&quot;"/></g><g fill="#000" stroke-width="1.9" aria-label="DOWN" font-family="Impact" font-size="28.6" font-weight="700" style="line-height:1.25;-inkscape-font-specification:&quot;Bahnschrift Bold&quot;;text-align:center" text-anchor="middle"><path d="M138.7 271.7h4.3q4.3 0 5.8.4t2.3 1.3q.8.9 1 2l.1 4.3v7.9q0 3-.2 4-.3 1-1 1.7-.7.5-1.8.8-1 .2-3.1.2h-7.4zm5.8 3.9v14.8q1.3 0 1.6-.5.3-.5.3-2.7v-8.8l-.1-2q-.1-.4-.5-.6-.3-.2-1.3-.2zM167.9 285q0 3.3-.2 4.8-.2 1.4-1 2.6-.9 1.1-2.3 1.7-1.4.7-3.3.7t-3.3-.6q-1.4-.6-2.3-1.8-.9-1.2-1-2.6-.2-1.4-.2-4.9v-3.8l.1-4.8q.2-1.4 1-2.6.9-1.2 2.3-1.8 1.5-.6 3.4-.6 1.8 0 3.2.6 1.5.5 2.3 1.7 1 1.2 1 2.6.3 1.4.3 4.9zm-6-7.5-.1-2q-.2-.4-.7-.4-.5 0-.7.3-.3.4-.3 2.1v10.6q0 2 .2 2.4.2.5.7.5.6 0 .8-.6.2-.5.2-2.5zM192.1 271.7l-2.6 22.6h-7.3q-1-5.2-1.8-11.8l-1.6 11.8h-7.3l-2.6-22.6h5.7l.6 8 .6 7.5q.3-5.9 1.6-15.5h6.1l.7 7.5.6 8.5q.5-8.1 1.6-16zM206.4 271.7v22.6h-5.1l-3-10.3v10.3h-5v-22.6h5l3.2 10.2v-10.2z" style="-inkscape-font-specification:&quot;Impact Bold&quot;"/></g><g fill="#000" stroke-width="1.9" aria-label="SUBMIT" font-family="Impact" font-size="28.6" font-weight="700" style="line-height:1.25;-inkscape-font-specification:&quot;Bahnschrift Bold&quot;;text-align:center" text-anchor="middle"><path d="M36.2 278.6h-5.4v-1.7q0-1.2-.2-1.5-.2-.3-.7-.3-.5 0-.8.4-.3.4-.3 1.3 0 1.1.3 1.7.3.6 1.7 1.4 3.9 2.3 5 3.8 1 1.5 1 4.8 0 2.4-.6 3.6-.6 1.1-2.2 2-1.6.7-3.8.7-2.3 0-4-1-1.7-.8-2.2-2.2-.5-1.4-.5-4v-1.4h5.4v2.8q0 1.2.3 1.6.2.4.8.4.6 0 .9-.5.2-.5.2-1.4 0-2-.5-2.6-.6-.6-2.7-2l-3-2.1q-.7-.7-1.1-1.8-.5-1.2-.5-3 0-2.6.7-3.8.6-1.2 2.1-1.9 1.5-.6 3.6-.6 2.3 0 3.9.7t2.1 1.9q.5 1 .5 3.8zM52 271.7v15.1q0 2.6-.3 3.6-.1 1-1 2.2-.8 1-2.1 1.6-1.4.6-3.2.6-2 0-3.6-.7-1.5-.7-2.3-1.7-.7-1.1-.9-2.3l-.1-5v-13.4h5.9v17l.1 1.9q.2.4.7.4.5 0 .7-.5l.1-2.1v-16.7zM54.2 271.7H60q2.8 0 4.2.5 1.5.4 2.4 1.7.8 1.3.8 4.3 0 2-.6 2.7-.6.8-2.4 1.2 2 .5 2.7 1.5.8 1.1.8 3.3v2.1q0 2.3-.6 3.4-.5 1-1.6 1.5-1.2.4-4.7.4h-6.8zm5.9 3.9v5h.5q1 0 1.1-.4.3-.5.3-2.5 0-1-.2-1.4-.2-.5-.5-.6l-1.2-.1zm0 8.5v6.3q1.2 0 1.5-.3.4-.4.4-1.8v-2q0-1.5-.3-1.8-.3-.3-1.6-.4zM88 271.7v22.6h-5v-15.2l-2.1 15.2h-3.6L75 279.4v14.9H70v-22.6h7.6l.7 4.8.8 5.8 1.3-10.6zM96.3 271.7v22.6h-5.9v-22.6zM110.5 271.7v4.5H107v18.1H101v-18h-3.4v-4.6z" style="-inkscape-font-specification:&quot;Impact Bold&quot;"/></g><g fill="#000" stroke-width="1.9" aria-label="RESET" font-family="Impact" font-size="28.6" font-weight="700" style="line-height:1.25;-inkscape-font-specification:&quot;Bahnschrift Bold&quot;;text-align:center" text-anchor="middle"><path d="M248.4 271.7h4.1q4.2 0 5.7.3 1.4.4 2.3 1.7 1 1.3 1 4.2 0 2.6-.7 3.5-.6 1-2.6 1.1 1.8.5 2.4 1.2.6.7.7 1.3.2.6.2 3.3v6H256v-7.5q0-1.8-.3-2.2-.2-.5-1.5-.5v10.2h-5.8zm5.8 3.9v5q1 0 1.4-.3.4-.2.4-1.7v-1.3q0-1-.4-1.4-.3-.3-1.4-.3zM263.8 271.7h9.7v4.5h-3.9v4.3h3.7v4.3h-3.7v5h4.3v4.5h-10.1zM288 278.6h-5.4v-1.7q0-1.2-.2-1.5-.2-.3-.7-.3-.5 0-.8.4-.3.4-.3 1.3 0 1.1.3 1.7.3.6 1.7 1.4 4 2.3 5 3.8t1 4.8q0 2.4-.6 3.6-.6 1.1-2.2 2-1.6.7-3.8.7-2.3 0-4-1-1.7-.8-2.2-2.2-.5-1.4-.5-4v-1.4h5.5v2.8q0 1.2.2 1.6.2.4.8.4.6 0 .9-.5.3-.5.3-1.4 0-2-.6-2.6-.5-.6-2.7-2l-3-2.1q-.6-.7-1.1-1.8-.5-1.2-.5-3 0-2.6.7-3.8.7-1.2 2.1-1.9 1.5-.6 3.6-.6 2.3 0 3.9.7t2.1 1.9q.6 1 .6 3.8zM290.4 271.7h9.8v4.5h-4v4.3h3.7v4.3h-3.6v5h4.3v4.5h-10.2zM313.7 271.7v4.5h-3.5v18.1h-5.9v-18H301v-4.6z" style="-inkscape-font-specification:&quot;Impact Bold&quot;"/></g></svg>